<svg width="200" height="200" viewBox="0 0 200 200" fill="none" xmlns="http://www.w3.org/2000/svg">
<circle cx="100" cy="100" r="97.5" stroke="black" stroke-width="5"/>
<g clip-path="url(#clip0_1_74)">
<path fill-rule="evenodd" clip-rule="evenodd" d="M138.065 146.4H61.9405C57.8457 146.4 54.818 142.357 56.3666 138.639C63.5354 121.448 80.3787 111.6 100 111.6C119.627 111.6 136.47 121.448 143.639 138.639C145.188 142.357 142.16 146.4 138.065 146.4ZM76.3187 76.7999C76.3187 64.0051 86.9443 53.5999 100 53.5999C113.062 53.5999 123.681 64.0051 123.681 76.7999C123.681 89.5947 113.062 99.9999 100 99.9999C86.9443 99.9999 76.3187 89.5947 76.3187 76.7999ZM157.745 144.289C153.441 124.806 139.974 110.428 122.255 103.903C131.645 96.4966 137.12 84.5194 135.107 71.4056C132.776 56.1922 119.853 44.0183 104.263 42.2435C82.7335 39.7901 64.4751 56.2041 64.4751 76.7999C64.4751 87.7619 69.6603 97.529 77.7513 103.903C60.0207 110.428 46.5647 124.806 42.2553 144.289C40.6893 151.37 46.5183 158 53.9133 158H146.087C153.488 158 159.311 151.37 157.745 144.289Z" fill="black"/>
</g>
<defs>
<clipPath id="clip0_1_74">
<rect width="116" height="116" fill="white" transform="translate(42 42)"/>
</clipPath>
</defs>
</svg>
